<svg width="128" height="128" viewBox="0 0 128 128" xmlns="http://www.w3.org/2000/svg">
  <!-- 渐变背景 -->
  <defs>
    <linearGradient id="grad" x1="0%" y1="0%" x2="100%" y2="100%">
      <stop offset="0%" style="stop-color:#667eea;stop-opacity:1" />
      <stop offset="100%" style="stop-color:#764ba2;stop-opacity:1" />
    </linearGradient>
  </defs>

  <!-- 圆形背景 -->
  <circle cx="64" cy="64" r="60" fill="url(#grad)"/>

  <!-- 书本图标 -->
  <g transform="translate(32, 32)">
    <!-- 书本外框 -->
    <rect x="8" y="12" width="48" height="52" rx="4" fill="white" opacity="0.9"/>

    <!-- 书页 -->
    <rect x="12" y="16" width="40" height="4" rx="2" fill="#667eea" opacity="0.8"/>
    <rect x="12" y="24" width="40" height="4" rx="2" fill="#667eea" opacity="0.6"/>
    <rect x="12" y="32" width="32" height="4" rx="2" fill="#667eea" opacity="0.6"/>
    <rect x="12" y="40" width="36" height="4" rx="2" fill="#667eea" opacity="0.6"/>
    <rect x="12" y="48" width="28" height="4" rx="2" fill="#667eea" opacity="0.6"/>

    <!-- 星标 -->
    <circle cx="48" cy="52" r="10" fill="#ffd700"/>
    <path d="M 48 46 L 50 50 L 54 50 L 51 53 L 52 57 L 48 54 L 44 57 L 45 53 L 42 50 L 46 50 Z" fill="white"/>
  </g>
</svg>
